<?xml version="1.0" standalone="no"?>
<!DOCTYPE svg PUBLIC "-//W3C//DTD SVG 20010904//EN"
 "http://www.w3.org/TR/2001/REC-SVG-20010904/DTD/svg10.dtd">
<svg version="1.0" xmlns="http://www.w3.org/2000/svg"
 width="880.000000pt" height="880.000000pt" viewBox="0 0 880.000000 880.000000"
 preserveAspectRatio="xMidYMid meet">
<metadata>
Created by potrace 1.11, written by Peter Selinger 2001-2013
</metadata>
<g transform="translate(0.000000,880.000000) scale(0.100000,-0.100000)"
fill="#000000" stroke="none">
<path d="M0 4400 l0 -4400 4400 0 4400 0 0 4400 0 4400 -4400 0 -4400 0 0
-4400z m2360 1600 l0 -360 -360 0 -360 0 0 360 0 360 360 0 360 0 0 -360z
m3200 0 l0 -360 -360 0 -360 0 0 360 0 360 360 0 360 0 0 -360z m-3200 -800
l0 -360 -360 0 -360 0 0 360 0 360 360 0 360 0 0 -360z m3200 0 l0 -360 -360
0 -360 0 0 360 0 360 360 0 360 0 0 -360z m-3200 -800 l0 -360 -360 0 -360 0
0 360 0 360 360 0 360 0 0 -360z m800 0 l0 -360 -360 0 -360 0 0 360 0 360
360 0 360 0 0 -360z m800 0 l0 -360 -360 0 -360 0 0 360 0 360 360 0 360 0 0
-360z m1600 0 l0 -360 -360 0 -360 0 0 360 0 360 360 0 360 0 0 -360z m800 0
l0 -360 -360 0 -360 0 0 360 0 360 360 0 360 0 0 -360z m800 0 l0 -360 -360 0
-360 0 0 360 0 360 360 0 360 0 0 -360z m-4800 -800 l0 -360 -360 0 -360 0 0
360 0 360 360 0 360 0 0 -360z m1600 0 l0 -360 -360 0 -360 0 0 360 0 360 360
0 360 0 0 -360z m1600 0 l0 -360 -360 0 -360 0 0 360 0 360 360 0 360 0 0
-360z m1600 0 l0 -360 -360 0 -360 0 0 360 0 360 360 0 360 0 0 -360z m-4800
-800 l0 -360 -360 0 -360 0 0 360 0 360 360 0 360 0 0 -360z m800 0 l0 -360
-360 0 -360 0 0 360 0 360 360 0 360 0 0 -360z m800 0 l0 -360 -360 0 -360 0
0 360 0 360 360 0 360 0 0 -360z m1600 0 l0 -360 -360 0 -360 0 0 360 0 360
360 0 360 0 0 -360z m1600 0 l0 -360 -360 0 -360 0 0 360 0 360 360 0 360 0 0
-360z"/>
</g>
</svg>
