<svg xmlns="http://www.w3.org/2000/svg" id="Layer_1" data-name="Layer 1" viewBox="0 0 138 98">
<title>bb</title>
<path d="M40,60H58V78H40Z" transform="translate(-40 -60)" style="fill:#fff;fill-rule:evenodd"/>
<path d="M120,60h18V78H120Z" transform="translate(-40 -60)" style="fill:#fff;fill-rule:evenodd"/>
<path d="M40,80H58V98H40Z" transform="translate(-40 -60)" style="fill:#fff;fill-rule:evenodd"/>
<path d="M120,80h18V98H120Z" transform="translate(-40 -60)" style="fill:#fff;fill-rule:evenodd"/>
<path d="M40,100H58v18H40Z" transform="translate(-40 -60)" style="fill:#fff;fill-rule:evenodd"/>
<path d="M60,100H78v18H60Z" transform="translate(-40 -60)" style="fill:#fff;fill-rule:evenodd"/>
<path d="M80,100H98v18H80Z" transform="translate(-40 -60)" style="fill:#fff;fill-rule:evenodd"/>
<path d="M120,100h18v18H120Z" transform="translate(-40 -60)" style="fill:#fff;fill-rule:evenodd"/>
<path d="M140,100h18v18H140Z" transform="translate(-40 -60)" style="fill:#fff;fill-rule:evenodd"/>
<path d="M160,100h18v18H160Z" transform="translate(-40 -60)" style="fill:#fff;fill-rule:evenodd"/>
<path d="M40,120H58v18H40Z" transform="translate(-40 -60)" style="fill:#fff;fill-rule:evenodd"/>
<path d="M80,120H98v18H80Z" transform="translate(-40 -60)" style="fill:#fff;fill-rule:evenodd"/>
<path d="M120,120h18v18H120Z" transform="translate(-40 -60)" style="fill:#fff;fill-rule:evenodd"/>
<path d="M160,120h18v18H160Z" transform="translate(-40 -60)" style="fill:#fff;fill-rule:evenodd"/>
<path d="M40,140H58v18H40Z" transform="translate(-40 -60)" style="fill:#fff;fill-rule:evenodd"/>
<path d="M60,140H78v18H60Z" transform="translate(-40 -60)" style="fill:#fff;fill-rule:evenodd"/>
<path d="M80,140H98v18H80Z" transform="translate(-40 -60)" style="fill:#fff;fill-rule:evenodd"/>
<path d="M120,140h18v18H120Z" transform="translate(-40 -60)" style="fill:#fff;fill-rule:evenodd"/>
<path d="M140,140h18v18H140Z" transform="translate(-40 -60)" style="fill:#4f43ae;fill-rule:evenodd"/>
<path d="M160,140h18v18H160Z" transform="translate(-40 -60)" style="fill:#fff;fill-rule:evenodd"/>
</svg>